<svg class="typst-doc" viewBox="0 0 39.63911111111112 11.9581" width="39.63911111111112pt" height="11.9581pt" xmlns="http://www.w3.org/2000/svg" xmlns:xlink="http://www.w3.org/1999/xlink" xmlns:h5="http://www.w3.org/1999/xhtml">
    <g>
        <g class="typst-group">
            <g>
                <g class="typst-text" transform="matrix(1 0 0 -1 2.2 9.7581)">
                    <use xlink:href="#g7FBD1BE1E3482687381C897DD0B624A3" x="0" y="0" fill="#000000" fill-rule="nonzero"/>
                </g>
                <g class="typst-text" transform="matrix(1 0 0 -1 10.251999999999999 5.7650999999999994)">
                    <use xlink:href="#gA16F691FDA74BB49CEBABE355FAED879" x="0" y="0" fill="#000000" fill-rule="nonzero"/>
                </g>
                <g class="typst-text" transform="matrix(1 0 0 -1 17.773555555555557 9.7581)">
                    <use xlink:href="#g5A252798D3ED9BF7DAC59F05FD8AF1A6" x="0" y="0" fill="#000000" fill-rule="nonzero"/>
                </g>
                <g class="typst-text" transform="matrix(1 0 0 -1 29.387111111111114 9.7581)">
                    <use xlink:href="#g7FBD1BE1E3482687381C897DD0B624A3" x="0" y="0" fill="#000000" fill-rule="nonzero"/>
                </g>
            </g>
        </g>
    </g>
    <defs id="glyph">
        <symbol id="g7FBD1BE1E3482687381C897DD0B624A3" overflow="visible">
            <path d="M 0 0m 3.784 6.941 c 0 -0.032999992 -0.010999918 -0.11000013 -0.04399991 -0.21999979 l -1.4519999 -5.808 c -0.04400015 -0.16499996 -0.08800006 -0.264 -0.12100005 -0.30799997 c -0.09899998 -0.12100002 -0.47300005 -0.17600003 -1.133 -0.17600003 c -0.34100002 0 -0.49500006 0.033000022 -0.49500006 -0.253 c 0 -0.121 0.07700002 -0.176 0.22000003 -0.176 c 0.56099993 0 1.3529999 0.044 1.826 0.033 l 0.90199995 -0.011 c 0.15400004 0 0.7589998 -0.022 0.9460001 -0.022 c 0.1869998 0 0.2750001 0.088 0.2750001 0.264 c 0 0.110000014 -0.13199997 0.16499999 -0.40700006 0.16499999 c -0.572 0 -0.9020002 0.022000015 -1.0010002 0.07699999 c -0.032999992 0.022000015 -0.055000067 0.066000044 -0.055000067 0.13200003 l 1.4850001 5.995 c 0.032999992 0.15400028 0.065999985 0.25300026 0.09899998 0.28600025 c 0.04400015 0.065999985 0.3080001 0.09899998 0.7919998 0.09899998 c 0.605 0 1.0230002 -0.04400015 1.2320004 -0.14300013 c 0.20899963 -0.09899998 0.31899977 -0.32999992 0.31899977 -0.704 c 0 -0.19799995 -0.032999992 -0.4840002 -0.08799982 -0.8579998 c -0.022000313 -0.0880003 -0.032999992 -0.15400028 -0.032999992 -0.20900011 c 0 -0.12100029 0.05499983 -0.18700027 0.17599964 -0.18700027 c 0.09899998 0 0.16500044 0.09899998 0.19800043 0.28600025 l 0.29699993 1.8919997 c 0.01099968 0.055000305 0.021999836 0.12100029 0.021999836 0.18700027 c 0 0.11000013 -0.11000013 0.16499996 -0.34100008 0.16499996 h -6.028 c -0.286 0 -0.30799997 -0.032999992 -0.39600003 -0.2420001 l -0.649 -1.914 c -0.032999992 -0.09899998 -0.054999977 -0.16499996 -0.065999985 -0.20900011 c 0 -0.10999966 0.055000007 -0.16499996 0.176 -0.16499996 c 0.088 0 0.16500002 0.0880003 0.21999997 0.25300026 c 0.27500004 0.803 0.5500001 1.2979999 0.803 1.507 c 0.286 0.23099995 0.8360001 0.34100008 1.639 0.34100008 h 0.4289999 c 0.12100005 0 0.25300002 0.01099968 0.25300002 -0.07700014 Z "/>
        </symbol>
        <symbol id="gA16F691FDA74BB49CEBABE355FAED879" overflow="visible">
            <path d="M 0 0m 1.771 2.1945 l -0.8855 0.6391001 c -0.1232 0.10010004 -0.3003 0.046200037 -0.37730002 -0.08470011 c -0.07699999 -0.1308999 -0.030799985 -0.31570005 0.10780001 -0.37730002 l 1.0009999 -0.44659996 l -1.0009999 -0.4389 c -0.13859999 -0.06159997 -0.1848 -0.2464 -0.10780001 -0.37730002 c 0.07700002 -0.13089997 0.25410002 -0.18479991 0.37730002 -0.092399955 l 0.8855 0.64680004 l -0.11550009 -1.0857 c -0.015399933 -0.16169998 0.12320006 -0.28489998 0.26950002 -0.28489998 c 0.14630008 0 0.28489995 0.1232 0.26950002 0.28489998 l -0.11549997 1.0857 l 0.88549995 -0.64680004 c 0.13090014 -0.092399955 0.30030012 -0.03850001 0.37730002 0.092399955 c 0.0769999 0.13090003 0.030800104 0.31570005 -0.10780001 0.37730002 l -1.0009999 0.4389 l 1.0009999 0.44659996 c 0.13860011 0.06159997 0.18479991 0.24640012 0.10780001 0.37730002 c -0.0769999 0.13090014 -0.25410008 0.18480015 -0.37730002 0.08470011 l -0.88549995 -0.6391001 l 0.11549997 1.0857 c 0.015399933 0.15400004 -0.12319994 0.28489995 -0.26950002 0.28489995 c -0.14629996 0 -0.28489995 -0.1308999 -0.26950002 -0.28489995 Z "/>
        </symbol>
        <symbol id="g5A252798D3ED9BF7DAC59F05FD8AF1A6" overflow="visible">
            <path d="M 0 0m 7.678 4.037 h -6.798 c -0.176 0 -0.264 -0.0880003 -0.264 -0.25300026 c 0 -0.16499996 0.088 -0.25300002 0.264 -0.25300002 h 6.798 c 0.17600012 0 0.26399994 0.08800006 0.26399994 0.25300002 c 0 0.13199997 -0.12099981 0.25300026 -0.26399994 0.25300026 Z m 0 -2.0680003 h -6.798 c -0.176 0 -0.264 -0.08799994 -0.264 -0.25300002 c 0 -0.16499996 0.088 -0.25300002 0.264 -0.25300002 h 6.798 c 0.17600012 0 0.26399994 0.08800006 0.26399994 0.25300002 c 0 0.143 -0.12099981 0.25300002 -0.26399994 0.25300002 Z "/>
        </symbol>
    </defs>
</svg>
